<svg xmlns="http://www.w3.org/2000/svg" xmlns:xlink="http://www.w3.org/1999/xlink" width="54.002" height="54.002" viewBox="0 0 54.002 54.002">
  <defs>
    <radialGradient id="radial-gradient" cx="0.5" cy="0.5" r="0.5" gradientUnits="objectBoundingBox">
      <stop offset="0" stop-color="#2a6dff"/>
      <stop offset="1" stop-color="#6aa9ff"/>
    </radialGradient>
    <clipPath id="clip-path">
      <rect id="Rectangle_2" data-name="Rectangle 2" width="20.063" height="20.899" fill="none"/>
    </clipPath>
    <clipPath id="clip-path-2">
      <rect id="Rectangle_3" data-name="Rectangle 3" width="19.809" height="21.692" fill="none"/>
    </clipPath>
  </defs>
  <g id="Group_14" data-name="Group 14" transform="translate(-895 -246)">
    <path id="Path_1" data-name="Path 1" d="M27,0A27,27,0,1,0,54,27,27,27,0,0,0,27,0Z" transform="translate(895 246)" fill="url(#radial-gradient)"/>
    <g id="Group_10" data-name="Group 10" transform="translate(910.518 260.567)">
      <g id="Group_5" data-name="Group 5" transform="translate(0 3.969)" opacity="0.5">
        <g id="Group_4" data-name="Group 4" transform="translate(0 0)">
          <g id="Group_3" data-name="Group 3" clip-path="url(#clip-path)">
            <path id="Path_2" data-name="Path 2" d="M57.323,61.956l-1.1-11.272a1.858,1.858,0,0,0-.662-1.245l-5.471-4.5a1.867,1.867,0,0,0-1.349-.412l-2.752.266a.613.613,0,0,1,.325.545.625.625,0,0,1-1.249,0,.611.611,0,0,1,.225-.475l-.966.092a.611.611,0,0,1,.133.383.625.625,0,0,1-1.249,0,.578.578,0,0,1,.071-.279l-.716.067a.6.6,0,0,1,.037.212.617.617,0,0,1-.6.62.071.071,0,0,1-.029,0,.081.081,0,0,1-.033,0,.619.619,0,0,1-.591-.62.684.684,0,0,1,.008-.1l-1.674.162-.754.075c-.058,0-.117.017-.171.025a1.84,1.84,0,0,0-1.487,1.99L38.856,63.75a1.843,1.843,0,0,0,2.015,1.657l14.794-1.437a1.825,1.825,0,0,0,1.187-.6c.021-.025.042-.046.058-.067a1.957,1.957,0,0,0,.258-.4,1.905,1.905,0,0,0,.158-.687.675.675,0,0,0,0-.092,1.2,1.2,0,0,0-.008-.171M44.273,50.78h7.557a.727.727,0,1,1,0,1.453H44.273a.727.727,0,1,1,0-1.453m0,3.369h9.385a.727.727,0,1,1,0,1.453H44.273a.727.727,0,1,1,0-1.453m0,3.369h5.4a.727.727,0,0,1,0,1.453h-5.4a.727.727,0,1,1,0-1.453" transform="translate(-37.269 -44.517)" fill="#fff"/>
          </g>
        </g>
      </g>
      <g id="Group_8" data-name="Group 8" transform="translate(3.156 0)" opacity="0.35">
        <g id="Group_7" data-name="Group 7" transform="translate(0 0)">
          <g id="Group_6" data-name="Group 6" clip-path="url(#clip-path-2)">
            <path id="Path_3" data-name="Path 3" d="M64.266,42.451l-4.372-5.575a1.86,1.86,0,0,0-1.228-.7L48.881,35a1.842,1.842,0,0,0-2.024,1.441c-.012.054-.021.112-.029.167l-.108.879-.146,1.22-.054.458a.366.366,0,0,1,.1.029.618.618,0,0,1,.412.583.617.617,0,0,1-.6.62.071.071,0,0,1-.029,0,.081.081,0,0,1-.033,0L44.862,52.823a1.846,1.846,0,0,0,1.611,2.053l14.757,1.786c.058.008.117.008.171.012a1.927,1.927,0,0,0,.35-.021,1.765,1.765,0,0,0,.766-.316c.008-.008.021-.017.029-.025a.36.36,0,0,0,.042-.029,1.819,1.819,0,0,0,.7-1.228l1.362-11.247a1.851,1.851,0,0,0-.379-1.357M49.718,39.3a.594.594,0,0,1,.4-.15.631.631,0,0,1,.625.625.625.625,0,0,1-1.249,0,.611.611,0,0,1,.225-.475m6.537,5.917a.727.727,0,1,1,0,1.453H48.7a.727.727,0,1,1,0-1.453Zm-8.619-5.442a.578.578,0,0,1,.071-.279.61.61,0,0,1,.554-.346.621.621,0,0,1,.491.242.611.611,0,0,1,.133.383.625.625,0,0,1-1.249,0M54.1,53.406H48.7a.727.727,0,1,1,0-1.453h5.4a.727.727,0,0,1,0,1.453m3.985-3.369H48.7a.727.727,0,1,1,0-1.453h9.385a.727.727,0,1,1,0,1.453" transform="translate(-44.849 -34.984)" fill="#fff"/>
          </g>
        </g>
      </g>
      <path id="Path_4" data-name="Path 4" d="M61.094,46.537l-5.009-5.009a1.848,1.848,0,0,0-1.3-.541H44.926c-.058,0-.117,0-.171.008a1.84,1.84,0,0,0-1.666,1.666c0,.054-.008.112-.008.171V59.167a1.843,1.843,0,0,0,1.845,1.845H59.791c.058,0,.117,0,.171-.008a1.787,1.787,0,0,0,1.066-.471c.025-.021.046-.042.067-.062a1.783,1.783,0,0,0,.421-.654,1.827,1.827,0,0,0,.112-.479c0-.054.008-.112.008-.171V47.841a1.848,1.848,0,0,0-.541-1.3m-5.142,2.906a.729.729,0,0,1-.729.729H47.665a.727.727,0,1,1,0-1.453h7.557a.729.729,0,0,1,.729.725m-8.286,2.644h9.385a.727.727,0,1,1,0,1.453H47.665a.727.727,0,1,1,0-1.453m0,3.369h5.4a.727.727,0,0,1,0,1.453h-5.4a.727.727,0,1,1,0-1.453m1.42-12.8a.631.631,0,0,1,.625.625.625.625,0,0,1-1.249,0,.611.611,0,0,1,.225-.475.594.594,0,0,1,.4-.15m-1.857,0a.621.621,0,0,1,.491.242.611.611,0,0,1,.133.383.625.625,0,0,1-1.249,0A.579.579,0,0,1,46.674,43a.61.61,0,0,1,.554-.346m-1.857,0a.527.527,0,0,1,.117.012.366.366,0,0,1,.1.029.618.618,0,0,1,.412.583.617.617,0,0,1-.6.62.071.071,0,0,1-.029,0,.081.081,0,0,1-.033,0,.619.619,0,0,1-.591-.62.683.683,0,0,1,.008-.1.623.623,0,0,1,.616-.529" transform="translate(-40.661 -38.487)" fill="#fff"/>
    </g>
  </g>
</svg>
