<svg xmlns="http://www.w3.org/2000/svg" xmlns:xlink="http://www.w3.org/1999/xlink" width="54.002" height="54.002" viewBox="0 0 54.002 54.002">
  <defs>
    <radialGradient id="radial-gradient" cx="0.5" cy="0.5" r="0.5" gradientUnits="objectBoundingBox">
      <stop offset="0" stop-color="#ff2444"/>
      <stop offset="1" stop-color="#ff6074"/>
    </radialGradient>
  </defs>
  <g id="Group_16" data-name="Group 16" transform="translate(-896.164 -555.528)">
    <path id="Path_5" data-name="Path 5" d="M1.164,336.529a27,27,0,1,0,27-27,27,27,0,0,0-27,27" transform="translate(895 246)" fill="url(#radial-gradient)"/>
    <g id="Group_12" data-name="Group 12" transform="translate(910.868 570.322)">
      <path id="Path_6" data-name="Path 6" d="M53.465,363.541l-.013.009,0-.009-5.814-.189,1.942-2.918-6.79-2.076a.75.75,0,1,1,.438-1.435l7.22,2.209.417-.623,0,0,.013,0,1-.516,5.965-3.077-3.12-5.866a1.894,1.894,0,0,0-1.122-.929l-9.729-2.974a1.905,1.905,0,0,0-2.377,1.268l-4.925,16.124a1.9,1.9,0,0,0,1.263,2.376L52.5,369.39a1.877,1.877,0,0,0,1.362-.1c.03-.013.06-.026.086-.039a1.889,1.889,0,0,0,.928-1.126l1.921-6.3-2.329,1.2Zm-1.268-6.73a.751.751,0,0,1-.937.5l-7.46-2.282a.748.748,0,1,1,.438-1.431l7.46,2.278a.75.75,0,0,1,.5.933m-5.535-8.342a.644.644,0,1,1,.43.8.646.646,0,0,1-.43-.8m-1.831-.563a.645.645,0,0,1,1.233.378.645.645,0,1,1-1.233-.378M43,347.348a.65.65,0,0,1,.808-.43.532.532,0,0,1,.194.107.638.638,0,0,1-.542,1.13.037.037,0,0,1-.03,0,.646.646,0,0,1-.43-.8m3.8,15.093a.748.748,0,0,1-.933.494l-4.1-1.25a.751.751,0,0,1,.438-1.436l4.1,1.251a.752.752,0,0,1,.494.941" transform="translate(-36.478 -345.056)" fill="#fff"/>
      <g id="Group_11" data-name="Group 11" transform="translate(12.965 8.617)">
        <path id="Path_7" data-name="Path 7" d="M98.772,369.142l-.8.414-1.693-3.284.8-.414a.978.978,0,0,1,1.315.421l.8,1.548a.977.977,0,0,1-.421,1.315" transform="translate(-84.342 -365.75)" fill="#fff"/>
        <path id="Path_8" data-name="Path 8" d="M69.647,379.434,71.28,382.6l-3.666-.118Z" transform="translate(-67.615 -373.736)" fill="#fff"/>
        <path id="Path_9" data-name="Path 9" d="M84.347,371.21,75.9,375.563l-1.691-3.285,8.444-4.352Z" transform="translate(-71.463 -367.02)" fill="#fff"/>
      </g>
    </g>
  </g>
</svg>
