<svg xmlns="http://www.w3.org/2000/svg" xmlns:xlink="http://www.w3.org/1999/xlink" width="54.002" height="54.002" viewBox="0 0 54.002 54.002">
  <defs>
    <radialGradient id="radial-gradient" cx="0.5" cy="0.5" r="0.5" gradientUnits="objectBoundingBox">
      <stop offset="0" stop-color="#72af12"/>
      <stop offset="1" stop-color="#9cce3a"/>
    </radialGradient>
  </defs>
  <g id="Group_17" data-name="Group 17" transform="translate(-896.164 -705.837)">
    <path id="Path_13" data-name="Path 13" d="M1.164,486.838a27,27,0,1,0,27-27,27,27,0,0,0-27,27" transform="translate(895 246)" fill="url(#radial-gradient)"/>
    <g id="Group_13" data-name="Group 13" transform="translate(910.656 718.79)">
      <path id="Path_14" data-name="Path 14" d="M60.946,520.906a1.761,1.761,0,0,0-.167-.462,1.341,1.341,0,0,0-.083-.15l-3.035-4.743a9.3,9.3,0,0,1-7.012,4.5L45.9,523.092a.727.727,0,1,1-.783-1.224l2.969-1.9a9.226,9.226,0,0,1-2.382-.745l-1.62,1.037a.727.727,0,1,1-.783-1.224l1-.637a9.282,9.282,0,0,1-3.885-6.7L36.82,514a1.167,1.167,0,0,0-.137.1,1.836,1.836,0,0,0-.508,2.3c.029.05.054.1.087.15L45.073,530.3a1.837,1.837,0,0,0,2.544.562l12.521-8.02a1.16,1.16,0,0,0,.137-.1,1.8,1.8,0,0,0,.421-.454,1.945,1.945,0,0,0,.225-.516.665.665,0,0,0,.021-.087,1.819,1.819,0,0,0,0-.779M38.79,516.193c0,.008-.017.013-.021.021s-.021.013-.033.013a.618.618,0,0,1-.833-.2c-.017-.029-.029-.058-.042-.083a.622.622,0,0,1,.233-.779.82.82,0,0,1,.1-.054.405.405,0,0,1,.1-.025.6.6,0,0,1,.516.108.66.66,0,0,1,.146.158.616.616,0,0,1-.167.845m1.541-.983a.625.625,0,0,1-.675-1.053.635.635,0,0,1,.545-.058.6.6,0,0,1,.321.25.626.626,0,0,1-.192.862m11.934,7.807-4.551,2.911a.727.727,0,1,1-.783-1.224l4.547-2.911a.728.728,0,0,1,.787,1.224" transform="translate(-35.969 -503.057)" fill="#fff"/>
      <path id="Path_15" data-name="Path 15" d="M65.35,496.235a7.737,7.737,0,1,0-4.884,9.793,7.741,7.741,0,0,0,4.884-9.793m-7.324,6.629-4.476-2.232.741-1.491,2.986,1.487,3.144-6.3,1.491.741Z" transform="translate(-44.316 -490.944)" fill="#fff"/>
    </g>
  </g>
</svg>
