<svg xmlns="http://www.w3.org/2000/svg" viewBox="0 0 70 70.001">
  <g id="Group_4348" data-name="Group 4348" transform="translate(1490 3301.035)">
    <path id="Path_2139" data-name="Path 2139" d="M66.83,332.4l-4.56,2.09A29.617,29.617,0,0,1,65,346.966a29.973,29.973,0,0,1-49.02,23.17h6.81v-5H7.63v15.15h5v-6.4a35.007,35.007,0,0,0,54.2-41.49" transform="translate(-1490 -3613)" fill="#282828"/>
    <path id="Path_2140" data-name="Path 2140" d="M5,346.965A29.987,29.987,0,0,1,54.04,323.8H47.21v5H62.37V313.635h-5v6.4a35.011,35.011,0,0,0-54.2,41.5l4.56-2.089A29.619,29.619,0,0,1,5,346.965" transform="translate(-1490 -3613)" fill="#282828"/>
    <path id="Path_2141" data-name="Path 2141" d="M35,325.891a9.91,9.91,0,0,0-9.9,9.9v3.4a8.45,8.45,0,0,0-6.319,8.161v7.226a9.463,9.463,0,0,0,9.452,9.451H41.768a9.462,9.462,0,0,0,9.451-9.451v-7.226a8.45,8.45,0,0,0-6.318-8.161v-3.4a9.911,9.911,0,0,0-9.9-9.9m-4.9,9.9a4.9,4.9,0,1,1,9.8,0v3.121H30.1Zm16.116,11.563v7.226a4.456,4.456,0,0,1-4.451,4.451H28.236a4.457,4.457,0,0,1-4.452-4.451v-7.226a3.446,3.446,0,0,1,3.442-3.442H42.777a3.446,3.446,0,0,1,3.442,3.442" transform="translate(-1490 -3613)" fill="#282828"/>
    <path id="Path_2142" data-name="Path 2142" d="M35,348.241a2.5,2.5,0,0,0-2.5,2.5V352.2a2.5,2.5,0,0,0,5,0v-1.459a2.5,2.5,0,0,0-2.5-2.5" transform="translate(-1490 -3613)" fill="#282828"/>
  </g>
</svg>
