<svg xmlns="http://www.w3.org/2000/svg" viewBox="0 0 70 70">
  <g id="Group_4345" data-name="Group 4345" transform="translate(1490 3613)">
    <path id="Path_2122" data-name="Path 2122" d="M35,5A30.034,30.034,0,0,1,65,35V48.1A16.914,16.914,0,0,1,48.1,65H21.9A16.914,16.914,0,0,1,5,48.1V35A30.034,30.034,0,0,1,35,5m0-5h0A35,35,0,0,0,0,35V48.1A21.9,21.9,0,0,0,21.9,70H48.1A21.9,21.9,0,0,0,70,48.1V35A35,35,0,0,0,35,0" transform="translate(-1490 -3613)" fill="#282828"/>
    <path id="Path_2123" data-name="Path 2123" d="M30.022,40.17a6.069,6.069,0,1,0,10.19,6.58c5.73-8.88,6.75-21.63,6.75-21.63s-11.2,6.18-16.94,15.05M35,46.15a2.5,2.5,0,1,1,2.5-2.5,2.5,2.5,0,0,1-2.5,2.5" transform="translate(-1490 -3613)" fill="#282828"/>
    <path id="Path_2124" data-name="Path 2124" d="M36.768,14.268a2.5,2.5,0,1,1,0-3.536,2.5,2.5,0,0,1,0,3.536" transform="translate(-1490 -3613)" fill="#282828"/>
    <path id="Path_2125" data-name="Path 2125" d="M21.59,19.091a2.5,2.5,0,1,1-2.5-2.5,2.5,2.5,0,0,1,2.5,2.5" transform="translate(-1490 -3613)" fill="#282828"/>
    <path id="Path_2126" data-name="Path 2126" d="M14.268,33.233a2.5,2.5,0,1,1-3.536,0,2.5,2.5,0,0,1,3.536,0" transform="translate(-1490 -3613)" fill="#282828"/>
    <path id="Path_2127" data-name="Path 2127" d="M13.5,47.41a2.5,2.5,0,1,1-2.5,2.5,2.5,2.5,0,0,1,2.5-2.5" transform="translate(-1490 -3613)" fill="#282828"/>
    <path id="Path_2128" data-name="Path 2128" d="M54,49.91a2.5,2.5,0,1,1,2.5,2.5,2.5,2.5,0,0,1-2.5-2.5" transform="translate(-1490 -3613)" fill="#282828"/>
    <path id="Path_2129" data-name="Path 2129" d="M55.732,36.768a2.5,2.5,0,1,1,3.536,0,2.5,2.5,0,0,1-3.536,0" transform="translate(-1490 -3613)" fill="#282828"/>
    <path id="Path_2130" data-name="Path 2130" d="M50.91,21.591a2.5,2.5,0,1,1,2.5-2.5,2.5,2.5,0,0,1-2.5,2.5" transform="translate(-1490 -3613)" fill="#282828"/>
  </g>
</svg>
