<svg xmlns="http://www.w3.org/2000/svg" viewBox="0 0 70 70"><g id="Group_4347" data-name="Group 4347" transform="translate(1490 3410.435)"><path id="Path_2135" data-name="Path 2135" d="M68.971,238.358a3.52,3.52,0,0,0,0-4.974l-4.435-4.435a3.52,3.52,0,0,0-4.974,0l-2.3,2.3,9.409,9.409Z" transform="translate(-1490 -3613)" fill="#282828"/><path id="Path_2136" data-name="Path 2136" d="M25.347,272.565l12.7-3.615-9.08-9.08Z" transform="translate(-1490 -3613)" fill="#282828"/><path id="Path_2137" data-name="Path 2137" d="M55.129,233.383l-4.08,4.09a34.866,34.866,0,0,0-5.707-2.34,18,18,0,1,0-20.977.1A35.057,35.057,0,0,0,0,268.573H5a30.037,30.037,0,0,1,30-30,29.574,29.574,0,0,1,12.3,2.65L30.94,257.583l9.4,9.41L58,249.333l6.54-6.54ZM21.786,220.569a13,13,0,1,1,13,13,13.018,13.018,0,0,1-13-13" transform="translate(-1490 -3613)" fill="#282828"/><path id="Path_2138" data-name="Path 2138" d="M60.919,253.482A29.845,29.845,0,0,1,65,268.572h5a34.72,34.72,0,0,0-5.45-18.72Z" transform="translate(-1490 -3613)" fill="#282828"/></g>
</svg>
