<svg xmlns="http://www.w3.org/2000/svg" viewBox="0 0 70 70.001"><g id="Group_4349" data-name="Group 4349" transform="translate(1490 3199.616)"><path id="Path_2143" data-name="Path 2143" d="M42.471,471.114a7.279,7.279,0,0,1-7.27,7.271H12.27A7.279,7.279,0,0,1,5,471.114v-45.46a7.278,7.278,0,0,1,7.27-7.27H35.2a7.278,7.278,0,0,1,7.27,7.27V437.3h5v-11.65a12.284,12.284,0,0,0-12.27-12.27H12.27A12.284,12.284,0,0,0,0,425.654v45.46a12.284,12.284,0,0,0,12.27,12.271H35.2a12.284,12.284,0,0,0,12.27-12.271V459.465h-5Z" transform="translate(-1490 -3613)" fill="#282828"/><path id="Path_2144" data-name="Path 2144" d="M70,448.384,53.506,434.891v10.993H15.074v5H53.506v10.993Z" transform="translate(-1490 -3613)" fill="#282828"/></g>
</svg>
