<svg xmlns="http://www.w3.org/2000/svg" viewBox="0 0 70 70">
  <g id="Group_4346" data-name="Group 4346" transform="translate(1490 3507.711)">
    <path id="Path_2131" data-name="Path 2131" d="M53.927,105.289H16.069A16.069,16.069,0,0,0,0,121.359V147.5a16.076,16.076,0,0,0,16.069,16.07H45.127l-5-5H16.069A11.088,11.088,0,0,1,5,147.5v-26.14a11.088,11.088,0,0,1,11.07-11.07H53.927A11.08,11.08,0,0,1,65,121.359V147.5a10.929,10.929,0,0,1-2.569,7.07l3.549,3.55A15.974,15.974,0,0,0,70,147.5v-26.14a16.063,16.063,0,0,0-16.069-16.07" transform="translate(-1490 -3613)" fill="#282828"/><rect id="Rectangle_2683" data-name="Rectangle 2683" width="30.728" height="5" transform="translate(-1474.997 -3492.712)" fill="#282828"/><rect id="Rectangle_2684" data-name="Rectangle 2684" width="40.26" height="5" transform="translate(-1474.997 -3481.073)" fill="#282828"/><rect id="Rectangle_2685" data-name="Rectangle 2685" width="20.863" height="5" transform="translate(-1474.997 -3469.434)" fill="#282828"/><path id="Path_2132" data-name="Path 2132" d="M63.257,174.624l-1.486-1.486,6.078-6.079,1.486,1.486a2.275,2.275,0,0,1,0,3.214l-2.865,2.865a2.274,2.274,0,0,1-3.213,0" transform="translate(-1490 -3613)" fill="#282828"/><path id="Path_2133" data-name="Path 2133" d="M49.359,148.78l-5.866,5.867-2.336-8.209Z" transform="translate(-1490 -3613)" fill="#282828"/><path id="Path_2134" data-name="Path 2134" d="M60.393,171.763,44.756,156.126l6.083-6.077L66.47,165.68Z" transform="translate(-1490 -3613)" fill="#282828"/></g>
</svg>
