<svg xmlns="http://www.w3.org/2000/svg" width="70" height="70" viewBox="0 0 70 70">
  <g id="Group_4357" data-name="Group 4357" transform="translate(-221.11 2002)">
    <path id="Path_2154" data-name="Path 2154" d="M172.35,30.8a2.765,2.765,0,1,1-2.77-2.76,2.77,2.77,0,0,1,2.77,2.76" transform="translate(77 -2002)" fill="#141414"/>
    <path id="Path_2155" data-name="Path 2155" d="M181.88,30.8a2.765,2.765,0,1,1-2.77-2.76,2.77,2.77,0,0,1,2.77,2.76" transform="translate(77 -2002)" fill="#141414"/>
    <path id="Path_2156" data-name="Path 2156" d="M191.41,30.8a2.765,2.765,0,1,1-2.77-2.76,2.77,2.77,0,0,1,2.77,2.76" transform="translate(77 -2002)" fill="#141414"/>
    <path id="Path_2157" data-name="Path 2157" d="M204.65,0H153.58a9.468,9.468,0,0,0-9.47,9.46V60.54A9.468,9.468,0,0,0,153.58,70h51.07a9.46,9.46,0,0,0,9.46-9.46V9.46A9.46,9.46,0,0,0,204.65,0M179.11,51.61c-.64,0-1.26,0-1.87-.01L166.59,60V50.96c-10.51-1.55-12.48-6.43-12.48-20.16,0-18.01,3.36-20.8,25-20.8s25,2.79,25,20.8-3.35,20.81-25,20.81" transform="translate(77 -2002)" fill="#141414"/>
  </g>
</svg>
