<svg xmlns="http://www.w3.org/2000/svg" width="50" height="50.003" viewBox="0 0 50 50.003">
  <path id="Path_2150" data-name="Path 2150" d="M25,11.6c-21.64,0-25,2.79-25,20.8C0,46.131,1.963,51.017,12.476,52.567V61.6l10.646-8.4c.611.005,1.235.008,1.878.008,21.65,0,25-2.8,25-20.81S46.65,11.6,25,11.6m0,18.04a2.765,2.765,0,1,1-2.76,2.76A2.768,2.768,0,0,1,25,29.642m-9.53,0a2.765,2.765,0,1,1-2.76,2.76,2.768,2.768,0,0,1,2.76-2.76m19.06,5.53A2.765,2.765,0,1,1,37.3,32.4a2.768,2.768,0,0,1-2.77,2.77" transform="translate(0 -11.602)" fill="#141414"/>
</svg>
