<svg xmlns="http://www.w3.org/2000/svg" width="50.001" height="49.997" viewBox="0 0 50.001 49.997">
  <g id="Group_4358" data-name="Group 4358" transform="translate(-137.503 1994.592)">
    <path id="Path_2151" data-name="Path 2151" d="M104.722,20.306H89.545V24.08a4.274,4.274,0,0,1-4.267,4.267H76.261a4.218,4.218,0,0,1-1.812-.424,4.272,4.272,0,0,1-4.107,3.166h-6.1V51.623A5.773,5.773,0,0,0,70.021,57.4h34.7a5.78,5.78,0,0,0,5.782-5.782V26.1a5.789,5.789,0,0,0-5.782-5.793M90.13,47.791H76.835a1.692,1.692,0,0,1,0-3.384H90.13a1.692,1.692,0,0,1,0,3.384m7.778-7.915H76.835a1.692,1.692,0,0,1,0-3.384H97.908a1.692,1.692,0,0,1,0,3.384" transform="translate(77 -2002)" fill="#141414"/>
    <path id="Path_2152" data-name="Path 2152" d="M86.1,24.077V15.065a.827.827,0,0,0-.827-.827H80.619a.827.827,0,0,1-.742-1.193l2.2-4.443a.827.827,0,0,0-.741-1.194h-2a.827.827,0,0,0-.741.461l-3.062,6.2a.83.83,0,0,0-.086.366v9.646a.827.827,0,0,0,.827.827h9.012a.827.827,0,0,0,.827-.827" transform="translate(77 -2002)" fill="#141414"/>
    <path id="Path_2153" data-name="Path 2153" d="M71.169,26.82V17.808a.827.827,0,0,0-.827-.827H65.684a.827.827,0,0,1-.742-1.193l2.2-4.443a.827.827,0,0,0-.741-1.194H64.392a.827.827,0,0,0-.741.461l-3.062,6.2a.83.83,0,0,0-.086.366V26.82a.827.827,0,0,0,.827.827h9.012a.827.827,0,0,0,.827-.827" transform="translate(77 -2002)" fill="#141414"/>
  </g>
</svg>
