<svg xmlns="http://www.w3.org/2000/svg" width="70" height="70" viewBox="0 0 70 70">
  <path id="Path_2158" data-name="Path 2158" d="M329.38,0H278.3a9.46,9.46,0,0,0-9.46,9.46V60.54A9.46,9.46,0,0,0,278.3,70h51.08a9.466,9.466,0,0,0,9.46-9.46V9.46A9.466,9.466,0,0,0,329.38,0M293.77,17.03a.779.779,0,0,1,.09-.37l3.06-6.2a.834.834,0,0,1,.74-.46h2.01a.833.833,0,0,1,.74,1.2l-2.2,4.44a.825.825,0,0,0,.74,1.19h4.66a.828.828,0,0,1,.83.83v9.01a.828.828,0,0,1-.83.83H294.6a.828.828,0,0,1-.83-.83ZM278.84,29.41V19.77a.946.946,0,0,1,.08-.37l3.06-6.19a.82.82,0,0,1,.75-.46h2a.825.825,0,0,1,.74,1.19l-2.19,4.44a.826.826,0,0,0,.74,1.2h4.66a.824.824,0,0,1,.82.82v9.01a.826.826,0,0,1-.82.83h-9.02a.826.826,0,0,1-.82-.83m50,24.81A5.783,5.783,0,0,1,323.06,60H288.35a5.77,5.77,0,0,1-5.78-5.78V33.68h6.11a4.26,4.26,0,0,0,4.1-3.16,4.257,4.257,0,0,0,1.81.42h9.02a4.274,4.274,0,0,0,4.27-4.27V22.9h15.18a5.791,5.791,0,0,1,5.78,5.79Zm-12.6-15.13H295.17a1.69,1.69,0,1,0,0,3.38h21.07a1.69,1.69,0,1,0,0-3.38M308.46,47H295.17a1.7,1.7,0,0,0,0,3.39h13.29a1.7,1.7,0,0,0,0-3.39" transform="translate(-268.84)" fill="#141414"/>
</svg>
